<?xml version="1.0" encoding="iso-8859-1"?>
<!-- Generator: Adobe Illustrator 19.0.0, SVG Export Plug-In . SVG Version: 6.00 Build 0)  -->
<svg version="1.1" id="Layer_1" xmlns="http://www.w3.org/2000/svg" xmlns:xlink="http://www.w3.org/1999/xlink" x="0px" y="0px"
	 viewBox="0 0 500 500" style="enable-background:new 0 0 500 500;" xml:space="preserve">
<path style="fill:#EDC654;" d="M4,67v304c0,7.6,6.4,15.2,14,15.2h468c7.6,0,14-7.2,14-15.2V69c0-8.8-7.2-15.2-16-15.2H18
	C10.4,53.8,4,59,4,67z"/>
<rect x="28" y="77.8" style="fill:#CDEEF9;" width="448" height="280"/>
<path style="fill:#3C8E51;" d="M200,147.8l-73.2,73.6L92,187.8l-62.4,58.8c-0.4,0.4,0,111.2,0,111.2H476v-95.2L400.4,183l-81.2,80.8
	L200,147.8z"/>
<path style="fill:#54B265;" d="M204,144.2l-77.2,77.6l138.4,135.6h157.6L204,144.2z"/>
<path style="fill:#E8BB85;" d="M92,184.2L29.6,247c-0.4,0.4,0,111.2,0,111.2h237.6L92,184.2z"/>
<circle style="fill:#E9B526;" cx="316.4" cy="144.6" r="26.4"/>
<polygon style="fill:#54B265;" points="298,341.8 298,245.8 194,245.8 194,341.8 162,341.8 250,449.8 338,341.8 "/>
<path d="M250,453.8c-1.2,0-2.4-0.4-3.2-1.6l-88-108c-0.8-1.2-1.2-2.8-0.4-4.4s2-2.4,3.6-2.4h28v-92c0-2.4,1.6-4,4-4h108
	c2.4,0,4,1.6,4,4v92h32c1.6,0,2.8,0.8,3.6,2.4c0.8,1.2,0.4,3.2-0.4,4.4l-88,108C252.4,453.4,251.2,453.8,250,453.8z M170.4,345.8
	l79.6,97.6l79.6-97.6H302c-2.4,0-4-1.6-4-4v-92H198v92c0,2.4-1.6,4-4,4H170.4z"/>
<path d="M482,390.2H302c-2.4,0-4-1.6-4-4s1.6-4,4-4h180c6.4,0,10-3.6,10-10v-306c0-6.8-5.2-12-12-12H18c-6.8,0-10,3.2-10,10v308
	c0,6.4,3.6,10,10,10h180c2.4,0,4,1.6,4,4s-1.6,4-4,4H18c-10.8,0-18-7.2-18-18v-308c0-10.8,7.2-18,18-18h462c11.2,0,20,8.8,20,20v306
	C500,383,492.8,390.2,482,390.2z"/>
<path d="M172,362.2H28c-2.4,0-4-1.6-4-4v-280c0-2.4,1.6-4,4-4h388c2.4,0,4,1.6,4,4s-1.6,4-4,4H32v272h140c2.4,0,4,1.6,4,4
	S174.4,362.2,172,362.2z"/>
<path d="M472,362.2H328c-2.4,0-4-1.6-4-4s1.6-4,4-4h140v-272h-16c-2.4,0-4-1.6-4-4s1.6-4,4-4h20c2.4,0,4,1.6,4,4v280
	C476,360.2,474.4,362.2,472,362.2z"/>
<path d="M28,250.2c-1.2,0-2-0.4-2.8-1.2c-1.6-1.6-1.6-4,0-5.6l64-64.4c1.6-1.6,4-1.6,5.6,0s1.6,4,0,5.6l-64,64.4
	C30,249.8,29.2,250.2,28,250.2z"/>
<path d="M184,278.2c-1.2,0-2-0.4-2.8-1.2l-92-92c-1.6-1.6-1.6-4,0-5.6s4-1.6,5.6,0l92,92c1.6,1.6,1.6,4,0,5.6
	C186,277.8,185.2,278.2,184,278.2z"/>
<path d="M140,210.2c-1.2,0-2-0.4-2.8-1.2c-1.6-1.6-1.6-4,0-5.6l64-64c1.6-1.6,4-1.6,5.6,0s1.6,4,0,5.6l-64,64
	C142,210.2,141.2,210.2,140,210.2z"/>
<path d="M336,250.2c-1.2,0-2-0.4-2.8-1.2c-1.6-1.6-1.6-4,0-5.6l64.4-64.4c1.6-1.6,4-1.6,5.6,0s1.6,4,0,5.6L338.8,249
	C338,249.8,337.2,250.2,336,250.2z"/>
<path d="M356.4,298.6c-1.2,0-2-0.4-2.8-1.2L201.2,145c-1.6-1.6-1.6-4,0-5.6s4-1.6,5.6,0l152.4,152.4c1.6,1.6,1.6,4,0,5.6
	C358.4,298.2,357.6,298.6,356.4,298.6z"/>
<path d="M470.8,259.8c-1.2,0-2-0.4-2.8-1.2l-70-74c-1.6-1.6-1.6-4,0-5.6s4-1.6,5.6,0l70,74c1.6,1.6,1.6,4,0,5.6
	C472.8,259.4,471.6,259.8,470.8,259.8z"/>
<path d="M316,170.6c-15.6,0-28-12.8-28-28c0-15.6,12.8-28,28-28c6,0,11.6,1.6,16.4,5.2c2,1.2,2.4,3.6,0.8,5.6
	c-1.2,2-3.6,2.4-5.6,0.8c-3.6-2.4-7.6-3.6-11.6-3.6c-11.2,0-20,9.2-20,20c0,11.2,9.2,20,20,20s20-9.2,20-20c0-2.4,1.6-4,4-4
	s4,1.6,4,4C344.4,157.8,331.6,170.6,316,170.6z"/>
<g>
</g>
<g>
</g>
<g>
</g>
<g>
</g>
<g>
</g>
<g>
</g>
<g>
</g>
<g>
</g>
<g>
</g>
<g>
</g>
<g>
</g>
<g>
</g>
<g>
</g>
<g>
</g>
<g>
</g>
</svg>
